<svg xmlns="http://www.w3.org/2000/svg" viewBox="0 0 660 250" width="100%" role="img" aria-label="MoaV project chart"><rect width="660" height="250" rx="10" fill="#191527"/><text x="46.0" y="24.0" font-family="system-ui,-apple-system,'Segoe UI',sans-serif" font-size="12" fill="#e6e1f5" text-anchor="start" font-weight="600">Test suites in CI</text><line x1="46" y1="216.0" x2="642" y2="216.0" stroke="#ffffff" stroke-opacity="0.06"/><text x="38.0" y="220.0" font-family="system-ui,-apple-system,'Segoe UI',sans-serif" font-size="10" fill="#9a92b8" text-anchor="end" font-weight="400">0</text><line x1="46" y1="172.0" x2="642" y2="172.0" stroke="#ffffff" stroke-opacity="0.06"/><text x="38.0" y="176.0" font-family="system-ui,-apple-system,'Segoe UI',sans-serif" font-size="10" fill="#9a92b8" text-anchor="end" font-weight="400">15</text><line x1="46" y1="128.0" x2="642" y2="128.0" stroke="#ffffff" stroke-opacity="0.06"/><text x="38.0" y="132.0" font-family="system-ui,-apple-system,'Segoe UI',sans-serif" font-size="10" fill="#9a92b8" text-anchor="end" font-weight="400">30</text><line x1="46" y1="84.0" x2="642" y2="84.0" stroke="#ffffff" stroke-opacity="0.06"/><text x="38.0" y="88.0" font-family="system-ui,-apple-system,'Segoe UI',sans-serif" font-size="10" fill="#9a92b8" text-anchor="end" font-weight="400">45</text><line x1="46" y1="40.0" x2="642" y2="40.0" stroke="#ffffff" stroke-opacity="0.06"/><text x="38.0" y="44.0" font-family="system-ui,-apple-system,'Segoe UI',sans-serif" font-size="10" fill="#9a92b8" text-anchor="end" font-weight="400">60</text><path d="M46.0,216.0 L120.5,207.2 L195.0,207.2 L269.5,145.6 L344.0,139.7 L418.5,116.3 L493.0,66.4 L567.5,60.5 L642.0,60.5 L642.0,216 L46.0,216 Z" fill="#4ec9a5" fill-opacity="0.13"/><path d="M46.0,216.0 L120.5,207.2 L195.0,207.2 L269.5,145.6 L344.0,139.7 L418.5,116.3 L493.0,66.4 L567.5,60.5 L642.0,60.5" fill="none" stroke="#4ec9a5" stroke-width="2.2" stroke-linejoin="round"/><circle cx="46.0" cy="216.0" r="3.4" fill="#4ec9a5"/><text x="46.0" y="206.0" font-family="system-ui,-apple-system,'Segoe UI',sans-serif" font-size="10" fill="#e6e1f5" text-anchor="middle" font-weight="600">0</text><text x="46.0" y="237.0" font-family="system-ui,-apple-system,'Segoe UI',sans-serif" font-size="9" fill="#9a92b8" text-anchor="middle" font-weight="400">v1.8.6</text><circle cx="120.5" cy="207.2" r="3.4" fill="#4ec9a5"/><text x="120.5" y="197.2" font-family="system-ui,-apple-system,'Segoe UI',sans-serif" font-size="10" fill="#e6e1f5" text-anchor="middle" font-weight="600">3</text><text x="120.5" y="237.0" font-family="system-ui,-apple-system,'Segoe UI',sans-serif" font-size="9" fill="#9a92b8" text-anchor="middle" font-weight="400">v1.9.0</text><circle cx="195.0" cy="207.2" r="3.4" fill="#4ec9a5"/><text x="195.0" y="197.2" font-family="system-ui,-apple-system,'Segoe UI',sans-serif" font-size="10" fill="#e6e1f5" text-anchor="middle" font-weight="600">3</text><text x="195.0" y="237.0" font-family="system-ui,-apple-system,'Segoe UI',sans-serif" font-size="9" fill="#9a92b8" text-anchor="middle" font-weight="400">v1.9.1</text><circle cx="269.5" cy="145.6" r="3.4" fill="#4ec9a5"/><text x="269.5" y="135.6" font-family="system-ui,-apple-system,'Segoe UI',sans-serif" font-size="10" fill="#e6e1f5" text-anchor="middle" font-weight="600">24</text><text x="269.5" y="237.0" font-family="system-ui,-apple-system,'Segoe UI',sans-serif" font-size="9" fill="#9a92b8" text-anchor="middle" font-weight="400">v2.0.0</text><circle cx="344.0" cy="139.7" r="3.4" fill="#4ec9a5"/><text x="344.0" y="129.7" font-family="system-ui,-apple-system,'Segoe UI',sans-serif" font-size="10" fill="#e6e1f5" text-anchor="middle" font-weight="600">26</text><text x="344.0" y="237.0" font-family="system-ui,-apple-system,'Segoe UI',sans-serif" font-size="9" fill="#9a92b8" text-anchor="middle" font-weight="400">v2.0.1</text><circle cx="418.5" cy="116.3" r="3.4" fill="#4ec9a5"/><text x="418.5" y="106.3" font-family="system-ui,-apple-system,'Segoe UI',sans-serif" font-size="10" fill="#e6e1f5" text-anchor="middle" font-weight="600">34</text><text x="418.5" y="237.0" font-family="system-ui,-apple-system,'Segoe UI',sans-serif" font-size="9" fill="#9a92b8" text-anchor="middle" font-weight="400">v2.1.0</text><circle cx="493.0" cy="66.4" r="3.4" fill="#4ec9a5"/><text x="493.0" y="56.4" font-family="system-ui,-apple-system,'Segoe UI',sans-serif" font-size="10" fill="#e6e1f5" text-anchor="middle" font-weight="600">51</text><text x="493.0" y="237.0" font-family="system-ui,-apple-system,'Segoe UI',sans-serif" font-size="9" fill="#9a92b8" text-anchor="middle" font-weight="400">v2.2.0</text><circle cx="567.5" cy="60.5" r="3.4" fill="#4ec9a5"/><text x="567.5" y="50.5" font-family="system-ui,-apple-system,'Segoe UI',sans-serif" font-size="10" fill="#e6e1f5" text-anchor="middle" font-weight="600">53</text><text x="567.5" y="237.0" font-family="system-ui,-apple-system,'Segoe UI',sans-serif" font-size="9" fill="#9a92b8" text-anchor="middle" font-weight="400">v2.2.1</text><circle cx="642.0" cy="60.5" r="3.4" fill="#4ec9a5"/><text x="642.0" y="50.5" font-family="system-ui,-apple-system,'Segoe UI',sans-serif" font-size="10" fill="#e6e1f5" text-anchor="middle" font-weight="600">53</text><text x="642.0" y="237.0" font-family="system-ui,-apple-system,'Segoe UI',sans-serif" font-size="9" fill="#9a92b8" text-anchor="middle" font-weight="400">dev</text></svg>